<?xml version="1.0" encoding="UTF-8" standalone="no"?>
<!-- Generator: Gravit.io -->
<svg xmlns="http://www.w3.org/2000/svg" xmlns:xlink="http://www.w3.org/1999/xlink" style="isolation:isolate" viewBox="0 0 200 200" width="200px" height="200px"><defs><clipPath id="_clipPath_gk5yAVZkmBZCdhApPN6lxVyC1s7aShVh"><rect width="200" height="200"/></clipPath></defs><g clip-path="url(#_clipPath_gk5yAVZkmBZCdhApPN6lxVyC1s7aShVh)"><path d=" M 70 143 L 51 138 L 46 131 L 48 125 L 44 118 L 48 114 L 44 103 L 42 99 L 45 96 L 47 92 L 43 83 L 45 81 L 54 80 L 59 72 L 55 70 L 55 66 L 59 65 L 63 51 L 60 51 L 62 44 L 73 42 L 72 48 L 75 48 L 79 43 L 88 41 L 82 31 L 80 30 L 84 28 L 80 20 L 87 20 L 96 21 L 97 28 L 103 30 L 108 30 L 110 27 L 112 27 L 113 30 L 111 32 L 108 36 L 108 39 L 115 39 L 129 28 L 130 31 L 136 30 L 137 23 L 143 28 L 138 32 L 141 34 L 143 34 L 147 42 L 150 44 L 153 50 L 153 56 L 150 59 L 150 62 L 157 68 L 156 71 L 158 75 L 159 78 L 157 82 L 158 85 L 159 88 L 163 90 L 164 94 L 160 103 L 158 99 L 153 99 L 155 102 L 145 108 L 137 112 L 131 113 L 127 117 L 125 116 L 127 121 L 131 123 L 130 129 L 133 132 L 133 136 L 137 136 L 144 143 L 149 144 L 149 153 L 146 151 L 144 156 L 142 159 L 138 159 L 135 163 L 139 168 L 138 170 L 139 171 L 139 176 L 135 172 L 130 173 L 127 170 L 125 173 L 119 173 L 114 177 L 110 177 L 103 173 L 100 180 L 96 175 L 89 175 L 84 172 L 80 172 L 75 168 L 73 168 L 76 174 L 62 173 L 60 169 L 62 163 L 66 152 L 70 143 Z " fill="rgb(255,255,255)" vector-effect="non-scaling-stroke" stroke-width="3" stroke="rgb(0,0,0)" stroke-linejoin="miter" stroke-linecap="square" stroke-miterlimit="3"/><path d=" M 102 149.667 L 102 86.667 L 32 86.667 L 32 149.667 L 32 149.667 C 32 166.408 47.683 180 67 180 C 86.317 180 102 166.408 102 149.667 L 102 149.667 Z " fill-rule="evenodd" fill="rgb(255,255,255)" vector-effect="non-scaling-stroke" stroke-width="4" stroke="rgb(0,0,0)" stroke-linejoin="miter" stroke-linecap="square" stroke-miterlimit="3"/></g></svg>